<?xml version="1.0" encoding="UTF-8" standalone="no"?>
<!-- Created with Inkscape (http://www.inkscape.org/) -->

<svg
   version="1.1"
   id="svg48"
   width="1496"
   height="1496"
   viewBox="0 0 1496 1496"
   sodipodi:docname="illu_about.svg"
   inkscape:version="1.2.2 (b0a8486, 2022-12-01)"
   xmlns:inkscape="http://www.inkscape.org/namespaces/inkscape"
   xmlns:sodipodi="http://sodipodi.sourceforge.net/DTD/sodipodi-0.dtd"
   xmlns="http://www.w3.org/2000/svg"
   xmlns:svg="http://www.w3.org/2000/svg">
  <defs
     id="defs52">
    <clipPath
       clipPathUnits="userSpaceOnUse"
       id="clipPath70">
      <path
         d="m 7723.91,7436.36 c -340.11,303.39 -103.09,2780.44 -103.09,2780.44 l -2005.78,34.1 c 0,0 569.64,-2928.56 -459.78,-3019.18 l -692.8,-121.9 2181.54,-4049.61 2988.42,3820.5 -892.91,207.86 c 0,0 -675.48,44.41 -1015.6,347.79 z"
         id="path68" />
    </clipPath>
  </defs>
  <sodipodi:namedview
     id="namedview50"
     pagecolor="#ffffff"
     bordercolor="#000000"
     borderopacity="0.25"
     inkscape:showpageshadow="2"
     inkscape:pageopacity="0.0"
     inkscape:pagecheckerboard="0"
     inkscape:deskcolor="#d1d1d1"
     showgrid="false"
     inkscape:zoom="0.15775401"
     inkscape:cx="751.16949"
     inkscape:cy="748"
     inkscape:window-width="1419"
     inkscape:window-height="456"
     inkscape:window-x="0"
     inkscape:window-y="25"
     inkscape:window-maximized="0"
     inkscape:current-layer="g56">
    <inkscape:page
       x="0"
       y="0"
       id="page54"
       width="1496"
       height="1496" />
  </sodipodi:namedview>
  <g
     id="g56"
     inkscape:groupmode="layer"
     inkscape:label="Page 1"
     transform="matrix(1.3333333,0,0,-1.3333333,0,1496)">
    <g
       id="g58"
       transform="scale(0.1)">
      <path
         d="M 11215,30.5 0,0 v 11184.5 l 11220,35.5 -5,-11189.5"
         style="fill:#f4f6f6;fill-opacity:1;fill-rule:nonzero;stroke:none"
         id="path60" />
      <path
         d="m 7392.28,9061.77 c 0,0 213.87,-313.73 522.14,-481.8 246.03,-134.14 790.3,-425.79 823.93,-745.12 0,0 -162.54,330.54 -487.63,352.95 0,0 515.65,-117.65 762.27,-1221.33 H 7566.92 l -377.47,808.66 202.83,1286.64"
         style="fill:#1e1918;fill-opacity:1;fill-rule:nonzero;stroke:none"
         id="path62" />
      <g
         id="g64">
        <g
           id="g66"
           clip-path="url(#clipPath70)">
          <path
             d="M 9632.42,9640.65 H 4462.46 v 610.25 h 5169.96 v -610.25"
             style="fill:#c77e48;fill-opacity:1;fill-rule:nonzero;stroke:none"
             id="path72" />
          <path
             d="M 9632.42,9595.85 H 4462.46 v 44.8 h 5169.96 v -44.8"
             style="fill:#c77e48;fill-opacity:1;fill-rule:nonzero;stroke:none"
             id="path74" />
          <path
             d="M 9632.42,9551.04 H 4462.46 v 44.81 h 5169.96 v -44.81"
             style="fill:#c87f49;fill-opacity:1;fill-rule:nonzero;stroke:none"
             id="path76" />
          <path
             d="M 9632.42,9506.24 H 4462.46 v 44.8 h 5169.96 v -44.8"
             style="fill:#c98048;fill-opacity:1;fill-rule:nonzero;stroke:none"
             id="path78" />
          <path
             d="M 9632.42,9461.44 H 4462.46 v 44.8 h 5169.96 v -44.8"
             style="fill:#cb8049;fill-opacity:1;fill-rule:nonzero;stroke:none"
             id="path80" />
          <path
             d="M 9632.42,9416.64 H 4462.46 v 44.8 h 5169.96 v -44.8"
             style="fill:#cb8149;fill-opacity:1;fill-rule:nonzero;stroke:none"
             id="path82" />
          <path
             d="M 9632.42,9371.83 H 4462.46 v 44.81 h 5169.96 v -44.81"
             style="fill:#cc8249;fill-opacity:1;fill-rule:nonzero;stroke:none"
             id="path84" />
          <path
             d="M 9632.42,9327.03 H 4462.46 v 44.8 h 5169.96 v -44.8"
             style="fill:#ce8349;fill-opacity:1;fill-rule:nonzero;stroke:none"
             id="path86" />
          <path
             d="M 9632.42,9282.22 H 4462.46 v 44.81 h 5169.96 v -44.81"
             style="fill:#cf844a;fill-opacity:1;fill-rule:nonzero;stroke:none"
             id="path88" />
          <path
             d="M 9632.42,9237.42 H 4462.46 v 44.8 h 5169.96 v -44.8"
             style="fill:#d0844a;fill-opacity:1;fill-rule:nonzero;stroke:none"
             id="path90" />
          <path
             d="M 9632.42,9192.61 H 4462.46 v 44.81 h 5169.96 v -44.81"
             style="fill:#d1854b;fill-opacity:1;fill-rule:nonzero;stroke:none"
             id="path92" />
          <path
             d="M 9632.42,9147.81 H 4462.46 v 44.8 h 5169.96 v -44.8"
             style="fill:#d2864a;fill-opacity:1;fill-rule:nonzero;stroke:none"
             id="path94" />
          <path
             d="M 9632.42,9103 H 4462.46 v 44.81 H 9632.42 V 9103"
             style="fill:#d3864b;fill-opacity:1;fill-rule:nonzero;stroke:none"
             id="path96" />
          <path
             d="M 9632.42,9058.2 H 4462.46 v 44.8 h 5169.96 v -44.8"
             style="fill:#d4874c;fill-opacity:1;fill-rule:nonzero;stroke:none"
             id="path98" />
          <path
             d="M 9632.42,9013.4 H 4462.46 v 44.8 h 5169.96 v -44.8"
             style="fill:#d5874c;fill-opacity:1;fill-rule:nonzero;stroke:none"
             id="path100" />
          <path
             d="M 9632.42,8968.59 H 4462.46 v 44.81 h 5169.96 v -44.81"
             style="fill:#d6884d;fill-opacity:1;fill-rule:nonzero;stroke:none"
             id="path102" />
          <path
             d="M 9632.42,8923.79 H 4462.46 v 44.8 h 5169.96 v -44.8"
             style="fill:#d7894d;fill-opacity:1;fill-rule:nonzero;stroke:none"
             id="path104" />
          <path
             d="M 9632.42,8878.98 H 4462.46 v 44.81 h 5169.96 v -44.81"
             style="fill:#d88a4e;fill-opacity:1;fill-rule:nonzero;stroke:none"
             id="path106" />
          <path
             d="M 9632.42,8834.18 H 4462.46 v 44.8 h 5169.96 v -44.8"
             style="fill:#d98b4e;fill-opacity:1;fill-rule:nonzero;stroke:none"
             id="path108" />
          <path
             d="M 9632.42,8789.37 H 4462.46 v 44.81 h 5169.96 v -44.81"
             style="fill:#da8b4f;fill-opacity:1;fill-rule:nonzero;stroke:none"
             id="path110" />
          <path
             d="M 9632.42,8744.57 H 4462.46 v 44.8 h 5169.96 v -44.8"
             style="fill:#dc8d4f;fill-opacity:1;fill-rule:nonzero;stroke:none"
             id="path112" />
          <path
             d="M 9632.42,8699.77 H 4462.46 v 44.8 h 5169.96 v -44.8"
             style="fill:#dd8e50;fill-opacity:1;fill-rule:nonzero;stroke:none"
             id="path114" />
          <path
             d="M 9632.42,8654.97 H 4462.46 v 44.8 h 5169.96 v -44.8"
             style="fill:#de8f50;fill-opacity:1;fill-rule:nonzero;stroke:none"
             id="path116" />
          <path
             d="M 9632.42,8610.16 H 4462.46 v 44.81 h 5169.96 v -44.81"
             style="fill:#e09051;fill-opacity:1;fill-rule:nonzero;stroke:none"
             id="path118" />
          <path
             d="M 9632.42,8565.36 H 4462.46 v 44.8 h 5169.96 v -44.8"
             style="fill:#e29052;fill-opacity:1;fill-rule:nonzero;stroke:none"
             id="path120" />
          <path
             d="M 9632.42,8520.55 H 4462.46 v 44.81 h 5169.96 v -44.81"
             style="fill:#e39051;fill-opacity:1;fill-rule:nonzero;stroke:none"
             id="path122" />
          <path
             d="M 9632.42,8475.75 H 4462.46 v 44.8 h 5169.96 v -44.8"
             style="fill:#e49152;fill-opacity:1;fill-rule:nonzero;stroke:none"
             id="path124" />
          <path
             d="M 9632.42,8430.94 H 4462.46 v 44.81 h 5169.96 v -44.81"
             style="fill:#e59352;fill-opacity:1;fill-rule:nonzero;stroke:none"
             id="path126" />
          <path
             d="M 9632.42,8386.14 H 4462.46 v 44.8 h 5169.96 v -44.8"
             style="fill:#e69253;fill-opacity:1;fill-rule:nonzero;stroke:none"
             id="path128" />
          <path
             d="M 9632.42,8341.33 H 4462.46 v 44.81 h 5169.96 v -44.81"
             style="fill:#e79353;fill-opacity:1;fill-rule:nonzero;stroke:none"
             id="path130" />
          <path
             d="M 9632.42,8296.53 H 4462.46 v 44.8 h 5169.96 v -44.8"
             style="fill:#e89454;fill-opacity:1;fill-rule:nonzero;stroke:none"
             id="path132" />
          <path
             d="M 9632.42,8251.73 H 4462.46 v 44.8 h 5169.96 v -44.8"
             style="fill:#e99554;fill-opacity:1;fill-rule:nonzero;stroke:none"
             id="path134" />
          <path
             d="M 9632.42,8206.92 H 4462.46 v 44.81 h 5169.96 v -44.81"
             style="fill:#ea9655;fill-opacity:1;fill-rule:nonzero;stroke:none"
             id="path136" />
          <path
             d="M 9632.42,8162.12 H 4462.46 v 44.8 h 5169.96 v -44.8"
             style="fill:#ec9654;fill-opacity:1;fill-rule:nonzero;stroke:none"
             id="path138" />
          <path
             d="M 9632.42,8117.31 H 4462.46 v 44.81 h 5169.96 v -44.81"
             style="fill:#ed9756;fill-opacity:1;fill-rule:nonzero;stroke:none"
             id="path140" />
          <path
             d="M 9632.42,8072.51 H 4462.46 v 44.8 h 5169.96 v -44.8"
             style="fill:#ee9856;fill-opacity:1;fill-rule:nonzero;stroke:none"
             id="path142" />
          <path
             d="M 9632.42,8027.71 H 4462.46 v 44.8 h 5169.96 v -44.8"
             style="fill:#ef9a56;fill-opacity:1;fill-rule:nonzero;stroke:none"
             id="path144" />
          <path
             d="M 9632.42,7982.9 H 4462.46 v 44.81 h 5169.96 v -44.81"
             style="fill:#f09a57;fill-opacity:1;fill-rule:nonzero;stroke:none"
             id="path146" />
          <path
             d="M 9632.42,7938.1 H 4462.46 v 44.8 h 5169.96 v -44.8"
             style="fill:#f19a57;fill-opacity:1;fill-rule:nonzero;stroke:none"
             id="path148" />
          <path
             d="M 9632.42,7893.29 H 4462.46 v 44.81 h 5169.96 v -44.81"
             style="fill:#f29b58;fill-opacity:1;fill-rule:nonzero;stroke:none"
             id="path150" />
          <path
             d="M 9632.42,7848.49 H 4462.46 v 44.8 h 5169.96 v -44.8"
             style="fill:#f39d58;fill-opacity:1;fill-rule:nonzero;stroke:none"
             id="path152" />
          <path
             d="M 9632.42,7803.69 H 4462.46 v 44.8 h 5169.96 v -44.8"
             style="fill:#f49e59;fill-opacity:1;fill-rule:nonzero;stroke:none"
             id="path154" />
          <path
             d="M 9632.42,7758.88 H 4462.46 v 44.81 h 5169.96 v -44.81"
             style="fill:#f49e59;fill-opacity:1;fill-rule:nonzero;stroke:none"
             id="path156" />
          <path
             d="M 9632.42,7714.08 H 4462.46 v 44.8 h 5169.96 v -44.8"
             style="fill:#f59e5a;fill-opacity:1;fill-rule:nonzero;stroke:none"
             id="path158" />
          <path
             d="M 9632.42,7669.27 H 4462.46 v 44.81 h 5169.96 v -44.81"
             style="fill:#f69f5a;fill-opacity:1;fill-rule:nonzero;stroke:none"
             id="path160" />
          <path
             d="M 9632.42,7624.47 H 4462.46 v 44.8 h 5169.96 v -44.8"
             style="fill:#f7a05a;fill-opacity:1;fill-rule:nonzero;stroke:none"
             id="path162" />
          <path
             d="M 4462.46,7624.47 H 9632.42 V 3060.21 H 4462.46 v 4564.26"
             style="fill:#f7a05a;fill-opacity:1;fill-rule:nonzero;stroke:none"
             id="path164" />
        </g>
      </g>
      <path
         d="m 10459.1,6832.02 -2463.54,486.17 -229.12,456.94 c -992.03,-268.9 -2253.08,-33.61 -2253.08,-33.61 L 5255.05,7285.25 C 4818.51,7197.78 3544.67,6942.51 2993.27,6832.02 2322.29,6697.56 2242.28,5985.37 2242.28,5985.37 L 1496.26,0 H 11220 v 6234.28 c -197.3,465.97 -760.9,597.74 -760.9,597.74"
         style="fill:#574039;fill-opacity:1;fill-rule:nonzero;stroke:none"
         id="path166" />
      <path
         d="m 8647.86,1207 c 0,0 -540.26,888.63 -1612.86,970.28 L 7002.57,808.398 c 0,0 574.73,180.801 1231.27,-106.296 L 8647.86,1207"
         style="fill:#e8944e;fill-opacity:1;fill-rule:nonzero;stroke:none"
         id="path168" />
      <path
         d="M 8271.68,1633.84 7876.53,814.301 8825.89,0 H 11014.7 L 8271.68,1633.84"
         style="fill:#66504a;fill-opacity:1;fill-rule:nonzero;stroke:none"
         id="path170" />
      <path
         d="m 8073.05,11220 20.98,-482.7 c 35.19,-105.5 137.54,-110.9 137.54,-110.9 149.29,0 230.41,68 264.3,213.3 15.03,64.5 71.22,226.6 119.39,380.3 h -542.21"
         style="fill:#b6733f;fill-opacity:1;fill-rule:nonzero;stroke:none"
         id="path172" />
      <path
         d="m 4630.84,10839.7 c 48.46,-166.7 115.01,-213.3 264.3,-213.3 0,0 102.35,5.4 137.54,110.9 l 20.97,482.7 h -544.69 c 49.43,-162.6 108.21,-333.3 121.88,-380.3"
         style="fill:#b6733f;fill-opacity:1;fill-rule:nonzero;stroke:none"
         id="path174" />
      <path
         d="m 8226.08,10892.4 c -115.7,0 -226.49,-103.5 -311.95,-291.4 -88.86,-195.4 -137.8,-455.9 -137.8,-733.43 0,-277.55 48.94,-538.02 137.8,-733.43 85.46,-187.92 196.25,-291.42 311.95,-291.42 115.71,0 226.49,103.5 311.95,291.42 88.87,195.41 137.81,455.88 137.81,733.43 0,277.53 -48.94,538.03 -137.81,733.43 -85.46,187.9 -196.24,291.4 -311.95,291.4 z m 0,-2109.4 c -285.7,0 -509.5,476.4 -509.5,1084.57 0,608.23 223.8,1084.63 509.5,1084.63 285.71,0 509.51,-476.4 509.51,-1084.63 0,-608.17 -223.8,-1084.57 -509.51,-1084.57"
         style="fill:#66686e;fill-opacity:1;fill-rule:nonzero;stroke:none"
         id="path176" />
      <path
         d="m 4848.26,10795.2 c -115.71,0 -226.49,-103.5 -311.95,-291.4 -88.86,-195.4 -137.8,-455.9 -137.8,-733.46 0,-277.56 48.94,-538.03 137.8,-733.44 85.46,-187.92 196.24,-291.42 311.95,-291.42 115.71,0 226.49,103.5 311.95,291.42 88.86,195.41 137.8,455.88 137.8,733.44 0,277.56 -48.94,538.06 -137.8,733.46 -85.46,187.9 -196.24,291.4 -311.95,291.4 z m 0,-2109.44 c -285.71,0 -509.51,476.4 -509.51,1084.58 0,608.16 223.8,1084.56 509.51,1084.56 285.71,0 509.51,-476.4 509.51,-1084.56 0,-608.18 -223.8,-1084.58 -509.51,-1084.58"
         style="fill:#66686e;fill-opacity:1;fill-rule:nonzero;stroke:none"
         id="path178" />
      <path
         d="m 4944.23,11220 c 2.93,-113.1 5.55,-214.6 5.55,-294.5 0,-568.2 184.18,-854.5 437.24,-1258.43 319.16,-509.46 842.9,-742.3 1183.54,-742.3 344.18,0 840.28,155.82 1159.22,683.73 241.21,399.3 454.41,763.8 454.41,1317 0,81.2 2.43,182.4 5.11,294.5 H 4944.23"
         style="fill:#e8944e;fill-opacity:1;fill-rule:nonzero;stroke:none"
         id="path180" />
      <path
         d="m 5865.09,10144.8 c 0,0 174.6,76.6 324.1,129 110.23,38.6 195.4,53.1 239.68,53.1 l 177.15,-98.2 163.83,98.2 c 0,0 125.33,-5.9 246.12,-50.3 134.56,-49.5 286.06,-106.1 376.31,-117.2 0,0 -1013.37,-119.8 -1527.19,-14.6"
         style="fill:#ed108e;fill-opacity:1;fill-rule:nonzero;stroke:none"
         id="path182" />
      <path
         d="m 5865.09,10147.6 c 0,0 606.28,-87.1 1527.19,11.8 0,0 -65.81,-63.5 -144.41,-123.6 -109.13,-83.43 -211.15,-216.84 -683.74,-216.84 -390.49,0 -482.82,146.85 -575.21,221.44 -92.8,74.8 -123.83,107.2 -123.83,107.2"
         style="fill:#ed108e;fill-opacity:1;fill-rule:nonzero;stroke:none"
         id="path184" />
      <path
         d="m 5243.21,7228.19 c -9.27,2.51 -14.05,3.89 -14.05,3.89 l 8.82,30.51 c 0.08,-0.02 4.69,-1.35 13.55,-3.75 l -8.32,-30.65"
         style="fill:#1e1918;fill-opacity:1;fill-rule:nonzero;stroke:none"
         id="path186" />
      <path
         d="m 7940,7262.98 -9.93,30.17 c 9.02,2.97 18.03,5.97 27.05,9.01 l 10.17,-30.09 c -9.1,-3.07 -18.19,-6.1 -27.29,-9.09 z m -82.24,-25.93 -9.19,30.41 c 9.08,2.74 18.15,5.52 27.22,8.34 l 9.43,-30.34 c -9.15,-2.83 -18.31,-5.65 -27.46,-8.41 z m -82.83,-23.96 -8.47,30.61 c 9.14,2.53 18.28,5.1 27.42,7.7 l 8.71,-30.55 c -9.22,-2.63 -18.44,-5.22 -27.66,-7.76 z m -2447.9,-6.1 c -10.07,2.4 -19.42,4.68 -28.01,6.8 l 7.63,30.83 c 8.51,-2.1 17.77,-4.35 27.75,-6.74 z m 2364.57,-15.93 -7.79,30.79 c 9.2,2.32 18.4,4.68 27.6,7.07 l 8,-30.74 c -9.27,-2.41 -18.54,-4.78 -27.81,-7.12 z m -2280.38,-3.23 c -9.72,2.12 -19.09,4.18 -28.09,6.19 l 6.94,31 c 8.94,-2 18.25,-4.05 27.91,-6.16 z m 2196.56,-16.91 -7.08,30.96 c 9.24,2.11 18.49,4.26 27.73,6.45 l 7.31,-30.91 c -9.32,-2.21 -18.64,-4.37 -27.96,-6.5 z m -2112.05,-0.65 c -9.63,1.91 -19.03,3.81 -28.2,5.69 l 6.38,31.12 c 9.1,-1.87 18.44,-3.76 28.01,-5.66 z m 84.75,-16.12 c -9.59,1.75 -19.02,3.49 -28.27,5.22 l 5.85,31.22 c 9.2,-1.72 18.57,-3.45 28.11,-5.18 z m 1943.09,-1.52 -6.42,31.11 c 9.29,1.91 18.58,3.86 27.88,5.84 l 6.61,-31.07 c -9.36,-1.99 -18.72,-3.95 -28.07,-5.88 z m -1858.1,-13.25 c -9.58,1.59 -19.03,3.18 -28.34,4.77 l 5.35,31.31 c 9.27,-1.58 18.67,-3.17 28.2,-4.75 z m 1773.52,-3.23 -5.76,31.24 c 9.33,1.72 18.66,3.46 28,5.25 l 5.96,-31.19 c -9.41,-1.8 -18.8,-3.56 -28.2,-5.3 z m -1688.32,-10.23 c -9.58,1.44 -19.05,2.89 -28.42,4.34 l 4.88,31.39 c 9.32,-1.44 18.74,-2.89 28.27,-4.33 z m 1603.43,-4.47 -5.1,31.35 c 9.36,1.52 18.72,3.07 28.09,4.67 l 5.31,-31.32 c -9.43,-1.6 -18.87,-3.17 -28.3,-4.7 z m -1518.05,-7.7 c -9.58,1.28 -19.07,2.59 -28.47,3.91 l 4.41,31.45 c 9.35,-1.31 18.79,-2.61 28.32,-3.89 z m 1432.9,-5.28 -4.48,31.45 c 9.39,1.33 18.78,2.7 28.19,4.09 l 4.67,-31.41 c -9.47,-1.41 -18.93,-2.79 -28.38,-4.13 z m -1347.36,-5.64 c -9.58,1.16 -19.09,2.32 -28.52,3.5 l 3.95,31.51 c 9.38,-1.17 18.84,-2.33 28.38,-3.47 z m 1261.99,-5.65 -3.86,31.53 c 9.4,1.14 18.82,2.33 28.25,3.55 l 4.06,-31.5 c -9.5,-1.23 -18.98,-2.42 -28.45,-3.58 z m -1176.26,-3.99 c -9.6,1 -19.14,2.03 -28.6,3.07 l 3.48,31.57 c 9.41,-1.03 18.88,-2.06 28.42,-3.05 z m 1090.61,-5.67 -3.26,31.6 c 9.45,0.97 18.92,1.98 28.41,3.01 l 3.44,-31.57 c -9.54,-1.04 -19.07,-2.05 -28.59,-3.04 z m -1004.8,-2.7 c -9.59,0.87 -19.13,1.75 -28.61,2.65 l 3,31.62 c 9.43,-0.9 18.92,-1.78 28.47,-2.64 z m 918.9,-5.35 -2.68,31.65 c 9.47,0.8 18.96,1.63 28.46,2.49 l 2.87,-31.63 c -9.56,-0.87 -19.11,-1.7 -28.65,-2.51 z m -832.94,-1.74 c -9.61,0.72 -19.16,1.46 -28.66,2.22 l 2.53,31.67 c 9.45,-0.76 18.95,-1.5 28.5,-2.21 z m 746.91,-4.74 -2.11,31.69 c 9.49,0.63 18.99,1.29 28.51,1.98 l 2.29,-31.68 c -9.59,-0.69 -19.16,-1.36 -28.69,-1.99 z m -660.86,-1.05 c -9.61,0.57 -19.18,1.17 -28.69,1.78 l 2.04,31.7 c 9.47,-0.61 18.98,-1.21 28.53,-1.77 z m 574.73,-3.89 -1.55,31.73 c 9.49,0.46 19.01,0.95 28.54,1.47 l 1.72,-31.71 c -9.59,-0.53 -19.16,-1.02 -28.71,-1.49 z m -488.61,-0.59 c -9.61,0.43 -19.18,0.88 -28.71,1.35 l 1.57,31.72 c 9.48,-0.47 19,-0.92 28.55,-1.34 z m 402.41,-2.85 -1,31.75 c 9.5,0.3 19.02,0.63 28.57,0.97 l 1.16,-31.74 c -9.6,-0.35 -19.17,-0.68 -28.73,-0.98 z m -316.22,-0.29 c -9.61,0.27 -19.19,0.57 -28.73,0.89 l 1.08,31.75 c 9.49,-0.32 19.01,-0.63 28.56,-0.9 z m 229.98,-1.68 -0.46,31.76 c 9.5,0.14 19.02,0.3 28.57,0.5 l 0.65,-31.76 c -9.62,-0.2 -19.2,-0.36 -28.76,-0.5 z m -143.74,-0.11 c -9.61,0.13 -19.19,0.27 -28.74,0.44 l 0.56,31.76 c 9.49,-0.17 19.02,-0.32 28.58,-0.44 z m 67.83,-0.44 -10.33,0.01 0.05,31.77 10.28,-0.01 18.3,0.03 0.12,-31.77 -18.42,-0.03"
         style="fill:#1e1918;fill-opacity:1;fill-rule:nonzero;stroke:none"
         id="path188" />
      <path
         d="m 8022.9,7291.37 -10.67,29.91 13.45,4.83 10.82,-29.86 -13.6,-4.88"
         style="fill:#1e1918;fill-opacity:1;fill-rule:nonzero;stroke:none"
         id="path190" />
      <path
         d="M 8795.93,510.801 H 4278.41 c -96.62,0 -174.95,78.301 -174.95,174.898 v 42.203 c 0,96.598 78.33,174.899 174.95,174.899 h 4517.52 c 96.62,0 174.96,-78.301 174.96,-174.899 v -42.203 c 0,-96.597 -78.34,-174.898 -174.96,-174.898"
         style="fill:#8f9396;fill-opacity:1;fill-rule:nonzero;stroke:none"
         id="path192" />
      <path
         d="M 6993.72,510.801 H 1263.17 c -88.23,0 -159.76,71.5 -159.76,159.699 v 3384.3 c 0,88.23 71.53,159.76 159.76,159.76 h 5730.55 c 88.23,0 159.76,-71.53 159.76,-159.76 V 670.5 c 0,-88.199 -71.53,-159.699 -159.76,-159.699"
         style="fill:#d3d6d5;fill-opacity:1;fill-rule:nonzero;stroke:none"
         id="path194" />
      <path
         d="m 4401.13,2306.21 c 0,-181.71 -147.37,-329.02 -329.16,-329.02 -181.79,0 -329.17,147.31 -329.17,329.02 0,181.71 147.38,329.01 329.17,329.01 181.79,0 329.16,-147.3 329.16,-329.01"
         style="fill:#8f9396;fill-opacity:1;fill-rule:nonzero;stroke:none"
         id="path196" />
      <path
         d="M 11220,0 H 0 V 511 H 11220 V 0"
         style="fill:#1e1918;fill-opacity:1;fill-rule:nonzero;stroke:none"
         id="path198" />
    </g>
  </g>
</svg>
